<?xml version="1.0" encoding="UTF-8" standalone="no" ?>
<!DOCTYPE svg PUBLIC "-//W3C//DTD SVG 1.1//EN" "http://www.w3.org/Graphics/SVG/1.1/DTD/svg11.dtd">
<svg xmlns="http://www.w3.org/2000/svg" xmlns:xlink="http://www.w3.org/1999/xlink" version="1.1" width="372.6826171875" height="125.2584" xml:space="preserve">
<desc>Created with Fabric.js 1.6.0-rc.1</desc>
<defs></defs>
  <g transform="translate(253.92 57.87) scale(0.98 0.97)">
   <text font-family="ADAMCG PRO" font-size="40" font-weight="normal" style="stroke: none; stroke-width: 1; stroke-dasharray: none; stroke-linecap: butt; stroke-linejoin: miter; stroke-miterlimit: 10; fill: #1e00ff; fill-rule: nonzero; opacity: 1;" ><tspan x="-71.96" y="8.98" style="stroke: none; stroke-width: 0; stroke-dasharray: none; stroke-linecap: butt; stroke-linejoin: miter; stroke-miterlimit: 4; fill: #1e00ff; fill-rule: ; opacity: 1;">D</tspan><tspan x="-44.97" y="8.98" style="stroke: none; stroke-width: 0; stroke-dasharray: none; stroke-linecap: butt; stroke-linejoin: miter; stroke-miterlimit: 4; fill: #1e00ff; fill-rule: ; opacity: 1;">R</tspan><tspan x="-19.35" y="8.98" style="stroke: none; stroke-width: 0; stroke-dasharray: none; stroke-linecap: butt; stroke-linejoin: miter; stroke-miterlimit: 4; fill: #1e00ff; fill-rule: ; opacity: 1;">E</tspan><tspan x="3.92" y="8.98" style="stroke: none; stroke-width: 0; stroke-dasharray: none; stroke-linecap: butt; stroke-linejoin: miter; stroke-miterlimit: 4; fill: #1e00ff; fill-rule: ; opacity: 1;">M</tspan><tspan x="38.02" y="8.98" style="stroke: none; stroke-width: 0; stroke-dasharray: none; stroke-linecap: butt; stroke-linejoin: miter; stroke-miterlimit: 4; fill: #1e00ff; fill-rule: ; opacity: 1;">O</tspan></text>
 </g>
  <g transform="translate(253.65 90.79) scale(0.61 0.61)">
   <text font-family="ADAMCG PRO" font-size="40" font-weight="normal" style="stroke: none; stroke-width: 1; stroke-dasharray: none; stroke-linecap: butt; stroke-linejoin: miter; stroke-miterlimit: 10; fill: #000000; fill-rule: nonzero; opacity: 1;" ><tspan x="-179.25" y="8.98" style="stroke: none; stroke-width: 0; stroke-dasharray: none; stroke-linecap: butt; stroke-linejoin: miter; stroke-miterlimit: 4; fill: #000000; fill-rule: ; opacity: 1;">E</tspan><tspan x="-155.99" y="8.98" style="stroke: none; stroke-width: 0; stroke-dasharray: none; stroke-linecap: butt; stroke-linejoin: miter; stroke-miterlimit: 4; fill: #000000; fill-rule: ; opacity: 1;">X</tspan><tspan x="-123.96" y="8.98" style="stroke: none; stroke-width: 0; stroke-dasharray: none; stroke-linecap: butt; stroke-linejoin: miter; stroke-miterlimit: 4; fill: #000000; fill-rule: ; opacity: 1;">P</tspan><tspan x="-101.53" y="8.98" style="stroke: none; stroke-width: 0; stroke-dasharray: none; stroke-linecap: butt; stroke-linejoin: miter; stroke-miterlimit: 4; fill: #000000; fill-rule: ; opacity: 1;">O</tspan><tspan x="-67.59" y="8.98" style="stroke: none; stroke-width: 0; stroke-dasharray: none; stroke-linecap: butt; stroke-linejoin: miter; stroke-miterlimit: 4; fill: #000000; fill-rule: ; opacity: 1;">R</tspan><tspan x="-41.96" y="8.98" style="stroke: none; stroke-width: 0; stroke-dasharray: none; stroke-linecap: butt; stroke-linejoin: miter; stroke-miterlimit: 4; fill: #000000; fill-rule: ; opacity: 1;">T</tspan><tspan x="-18.6" y="8.98" style="stroke: none; stroke-width: 0; stroke-dasharray: none; stroke-linecap: butt; stroke-linejoin: miter; stroke-miterlimit: 4; fill: #000000; fill-rule: ; opacity: 1;"> </tspan><tspan x="-6.61" y="8.98" style="stroke: none; stroke-width: 0; stroke-dasharray: none; stroke-linecap: butt; stroke-linejoin: miter; stroke-miterlimit: 4; fill: #000000; fill-rule: ; opacity: 1;">&amp;</tspan><tspan x="17.02" y="8.98" style="stroke: none; stroke-width: 0; stroke-dasharray: none; stroke-linecap: butt; stroke-linejoin: miter; stroke-miterlimit: 4; fill: #000000; fill-rule: ; opacity: 1;"> </tspan><tspan x="29.01" y="8.98" style="stroke: none; stroke-width: 0; stroke-dasharray: none; stroke-linecap: butt; stroke-linejoin: miter; stroke-miterlimit: 4; fill: #000000; fill-rule: ; opacity: 1;">I</tspan><tspan x="39.79" y="8.98" style="stroke: none; stroke-width: 0; stroke-dasharray: none; stroke-linecap: butt; stroke-linejoin: miter; stroke-miterlimit: 4; fill: #000000; fill-rule: ; opacity: 1;">M</tspan><tspan x="73.9" y="8.98" style="stroke: none; stroke-width: 0; stroke-dasharray: none; stroke-linecap: butt; stroke-linejoin: miter; stroke-miterlimit: 4; fill: #000000; fill-rule: ; opacity: 1;">P</tspan><tspan x="96.32" y="8.98" style="stroke: none; stroke-width: 0; stroke-dasharray: none; stroke-linecap: butt; stroke-linejoin: miter; stroke-miterlimit: 4; fill: #000000; fill-rule: ; opacity: 1;">O</tspan><tspan x="130.26" y="8.98" style="stroke: none; stroke-width: 0; stroke-dasharray: none; stroke-linecap: butt; stroke-linejoin: miter; stroke-miterlimit: 4; fill: #000000; fill-rule: ; opacity: 1;">R</tspan><tspan x="155.89" y="8.98" style="stroke: none; stroke-width: 0; stroke-dasharray: none; stroke-linecap: butt; stroke-linejoin: miter; stroke-miterlimit: 4; fill: #000000; fill-rule: ; opacity: 1;">T</tspan></text>
 </g>
<g style="stroke: none; stroke-width: 1; stroke-dasharray: none; stroke-linecap: butt; stroke-linejoin: miter; stroke-miterlimit: 10; fill: none; fill-rule: nonzero; opacity: 1;" transform="translate(10 10) scale(0.26 0.26)" >
  <path d="M 613.554 156.082 s -28.367 114.907 -117.899 87.012 c 0 0 -44.646 -16.609 -70.248 -13.932 c 0 0 -32.957 0.334 -61.41 28.997 c 0 0 -60.581 75.95 -118.221 49.75 c 0 0 -11.6 -0.893 -37.03 -3.793 c 0 0 73.962 74.755 155.908 14.304 c 0 0 15.065 63.533 -41.267 121.176 c 0 0 -44.539 37.336 -69.43 32.094 c 0 0 54.367 50.436 121.832 -13.099 c 0 0 44.542 -47.16 94.32 -56.331 c 0 0 89.737 -11.791 85.152 102.182 c 0 0 65.633 -101.491 -21.59 -138.742 c 0 0 -54.044 -17.329 -37.336 -60.728 c -0.001 0 144.727 -2.065 117.219 -148.89 z" style="stroke: none; stroke-width: 1; stroke-dasharray: none; stroke-linecap: butt; stroke-linejoin: miter; stroke-miterlimit: 10; fill: #000dff; fill-rule: nonzero; opacity: 1;" transform=" matrix(0.9999992930997345 0 0 0.9999992930997345 -121.91191382037483 -100.6049288822988) " stroke-linecap="round" />
  <path d="M 343.012 238.754 l -15.627 -101.689 l -60.62 63.756 l 14.951 97.297 z" style="stroke: none; stroke-width: 1; stroke-dasharray: none; stroke-linecap: butt; stroke-linejoin: miter; stroke-miterlimit: 10; fill: #e09f0e; fill-rule: nonzero; opacity: 1;" transform=" matrix(0.9999992930997345 0 0 0.9999992930997345 -121.91191382037483 -100.6049288822988) " stroke-linecap="round" />
  <path d="M 121.912 201.127 l 134.387 2.088 l 14.836 96.528 l -135.016 -6.175 z" style="stroke: none; stroke-width: 1; stroke-dasharray: none; stroke-linecap: butt; stroke-linejoin: miter; stroke-miterlimit: 10; fill: #de9210; fill-rule: nonzero; opacity: 1;" transform=" matrix(0.9999992930997345 0 0 0.9999992930997345 -121.91191382037483 -100.6049288822988) " stroke-linecap="round" />
  <path d="M 195.551 127.021 l 129.813 -1.079 l -65.088 68.037 l -137.155 -2.057 z" style="stroke: none; stroke-width: 1; stroke-dasharray: none; stroke-linecap: butt; stroke-linejoin: miter; stroke-miterlimit: 10; fill: #e09f0e; fill-rule: nonzero; opacity: 1;" transform=" matrix(0.9999992930997345 0 0 0.9999992930997345 -121.91191382037483 -100.6049288822988) " stroke-linecap="round" />
  <circle cx="417.375" cy="159.565" r="58.955" style="stroke: none; stroke-width: 1; stroke-dasharray: none; stroke-linecap: butt; stroke-linejoin: miter; stroke-miterlimit: 10; fill: #000dff; fill-rule: nonzero; opacity: 1;" transform="  matrix(0.9999992930997345 0 0 0.9999992930997345 -121.91191382037483 -100.6049288822988) "/>
  <path d="M 435.297 247.955 s 24.982 54.644 -1.918 60.923 c 0 0 -19.955 4.445 -18.184 33.176 l -26.468 -5.866 s 0.524 -33.128 31.985 -42.369 c 0 0 20.742 -1.796 7.436 -43.867 c 0 0 -1.582 -4.401 2.453 -5.5 c 2.947 -0.804 4.063 1.744 4.696 3.503 z" style="stroke: none; stroke-width: 1; stroke-dasharray: none; stroke-linecap: butt; stroke-linejoin: miter; stroke-miterlimit: 10; fill: #fff; fill-rule: nonzero; opacity: 1;" transform=" matrix(0.9999992930997345 0 0 0.9999992930997345 -121.91191382037483 -100.6049288822988) " stroke-linecap="round" />
</g>
</svg>